<!-- Generated by IcoMoon.io -->
<svg version="1.1" xmlns="http://www.w3.org/2000/svg" width="1024" height="1024" viewBox="0 0 1024 1024">
<g id="icomoon-ignore">
</g>
<path d="M682.662 127.995c56.579 0 110.84 22.476 150.848 62.484s62.484 94.27 62.484 150.848v341.335c0 56.579-22.477 110.84-62.484 150.848s-94.269 62.484-150.848 62.484h-341.335c-56.579 0-110.84-22.477-150.848-62.484s-62.484-94.269-62.484-150.848v-341.335c0-56.579 22.476-110.84 62.484-150.848s94.27-62.484 150.848-62.484h341.335zM511.995 341.327c-45.263 0-88.673 17.981-120.678 49.989-32.008 32.005-49.989 75.415-49.989 120.678s17.981 88.673 49.989 120.681c32.005 32.005 75.415 49.987 120.678 49.987s88.673-17.981 120.681-49.987c32.005-32.008 49.987-75.418 49.987-120.681s-17.981-88.673-49.987-120.678c-32.008-32.008-75.418-49.989-120.681-49.989zM511.995 426.662c22.633 0 44.337 8.991 60.339 24.993 16.005 16.003 24.993 37.709 24.993 60.339 0 22.633-8.988 44.337-24.993 60.339-16.003 16.005-37.706 24.993-60.339 24.993-22.63 0-44.337-8.988-60.339-24.993-16.003-16.003-24.993-37.706-24.993-60.339 0-22.63 8.991-44.337 24.993-60.339s37.709-24.993 60.339-24.993zM703.995 277.327c-11.315 0-22.167 4.495-30.17 12.498s-12.498 18.854-12.498 30.17c0 11.315 4.495 22.17 12.498 30.17 8.003 8.003 18.854 12.498 30.17 12.498s22.17-4.495 30.17-12.498c8.003-8 12.498-18.854 12.498-30.17s-4.495-22.167-12.498-30.17c-8-8.003-18.854-12.498-30.17-12.498z"></path>
</svg>
