<svg width="162" height="148" viewBox="0 0 162 148" fill="none" xmlns="http://www.w3.org/2000/svg">
<ellipse cx="127.222" cy="38.4009" rx="3.88505" ry="10.3603" fill="black"/>
<ellipse cx="3.88505" cy="10.3603" rx="3.88505" ry="10.3603" transform="matrix(-1 0 0 1 43.5349 28.0406)" fill="black"/>
<path d="M137.62 63.1767C143.61 60.3708 156.722 52.8812 161.254 45.37C160.283 50.3883 154.261 61.6227 143.124 74.832L123.861 97.3333C118.731 104.139 108.717 118.124 107.341 122.66C107.282 122.923 107.231 123.168 107.187 123.396C107.202 123.19 107.255 122.944 107.341 122.66C108.434 117.754 112.115 106.921 119.49 97.3333L127.422 84.3829L131.793 76.1271L137.62 63.1767Z" fill="black"/>
<path d="M24.3074 63.1767C18.3179 60.3708 5.20589 52.8812 0.673332 45.37C1.64459 50.3883 7.66642 61.6227 18.8036 74.832L38.0669 97.3333C43.1963 104.139 53.2108 118.124 54.5868 122.66C54.6453 122.923 54.6964 123.168 54.7403 123.396C54.7251 123.19 54.6728 122.944 54.5868 122.66C53.4936 117.754 49.813 106.921 42.4376 97.3333L34.5057 84.3829L30.135 76.1271L24.3074 63.1767Z" fill="black"/>
<path d="M121.932 68.5104L108.982 71.4242C109.5 81.914 105.529 93.2779 103.478 97.6487C113.968 90.008 120.151 75.0395 121.932 68.5104Z" fill="black"/>
<path d="M40.1697 68.5104L53.1198 71.4242C52.6018 81.914 56.5732 93.2779 58.6237 97.6487C48.134 90.008 41.9503 75.0395 40.1697 68.5104Z" fill="black"/>
<path d="M66.5435 124.364C65.2485 116.594 59.5288 113.141 56.8309 112.385C59.2914 115.105 61.4174 127.98 62.1728 134.077C64.1153 144.696 75.3928 147.783 80.7887 147.999C94.9044 146.704 99.1887 138.178 99.5664 134.077C100.084 125.53 103.344 116.162 104.908 112.547C98.3038 114.619 95.5735 121.289 95.0339 124.364C95.2929 139.905 85.645 144.977 80.7887 145.571C68.0004 141.362 68.1623 134.077 66.5435 124.364Z" fill="black"/>
<path d="M85.9675 74.8165H75.7693L75.6074 109.621C75.6074 115.837 73.2332 126.672 72.0461 131.312C76.4491 128.334 79.8162 116.581 80.9493 111.077C82.8918 122.603 87.6942 129.37 89.8526 131.312C87.91 126.521 86.4531 114.855 85.9675 109.621V74.8165Z" fill="black"/>
<path d="M14.7543 8.30212C19.0172 5.01054 29.5821 -1.21614 37.7406 0.208374C45.8991 1.63292 52.1479 4.25492 54.2523 5.38806C59.4866 8.57172 74.4224 14.1295 92.2933 10.892C95.7469 10.0825 104.24 7.58962 110.585 4.09314C116.931 0.596758 126.071 0.0465583 129.848 0.208374C131.845 0.208374 138.04 1.79434 146.846 8.14001L158.501 19.1478C160.066 21.1443 162.84 26.1411 161.415 30.1556C159.635 35.1739 157.854 37.2786 148.951 46.182C146.36 48.3944 139.238 53.5954 131.468 56.7035L118.518 62.5316C114.363 64.1504 104.661 67.2586 99.0922 66.7406C97.4193 66.4708 93.103 65.3805 89.2181 63.1791C85.3331 60.9775 81.9873 60.4271 80.8002 60.4271C79.0195 60.643 73.8721 61.9492 67.5267 65.4457C61.1813 68.9422 47.0762 64.2047 40.8168 61.3988L30.4564 56.7035C25.9777 54.9767 15.499 49.8073 9.41248 42.9437C3.32671 36.0809 1.69626 33.5018 1.64197 33.0697C0.562803 31.397 -1.07736 27.1124 0.994507 23.3568L3.42224 19.1478L14.7543 8.30212ZM50.0228 25.058C42.3826 15.7343 33.0266 15.6691 29.3031 16.8021L21.3705 18.9066C25.5793 19.2304 34.7742 20.5255 37.8822 23.1156C32.5403 22.8458 20.2056 23.2132 13.601 26.8392C17.4321 29.4293 25.6759 35.1917 28.0072 37.5228C29.0864 39.0337 34.0619 42.055 45.3285 42.0551C56.5951 42.0551 64.1603 39.0337 66.5345 37.5228C64.2143 37.253 57.6634 34.3822 50.0228 25.058ZM137.799 16.8021C134.076 15.6691 124.72 15.7343 117.079 25.058C109.439 34.3822 102.888 37.253 100.568 37.5228C102.942 39.0337 110.507 42.0551 121.774 42.0551C133.04 42.055 138.016 39.0337 139.095 37.5228C141.426 35.1917 149.67 29.4293 153.501 26.8392C146.897 23.2132 134.562 22.8458 129.22 23.1156C132.328 20.5255 141.523 19.2304 145.732 18.9066L137.799 16.8021Z" fill="black"/>
</svg>
