<svg width="100" height="100" viewBox="0 0 100 100" fill="none" xmlns="http://www.w3.org/2000/svg">
<rect width="100" height="100" rx="4" fill="black"/>
<ellipse cx="72.8986" cy="33.267" rx="1.92081" ry="5.12251" fill="#9E13E0"/>
<ellipse cx="1.92081" cy="5.12251" rx="1.92081" ry="5.12251" transform="matrix(-1 0 0 1 31.5225 28.1445)" fill="#9E13E0"/>
<path d="M78.0412 45.5152C81.0024 44.1279 87.4852 40.4248 89.7261 36.7109C89.2459 39.1922 86.2687 44.7469 80.7623 51.2781L71.2383 62.4035C68.7023 65.7683 63.7511 72.683 63.0707 74.9261C63.0418 75.0559 63.0166 75.1773 62.9949 75.2898C63.0024 75.1881 63.0282 75.0662 63.0707 74.9261C63.6112 72.5004 65.431 67.1442 69.0774 62.4035L72.9991 56.0004L75.16 51.9184L78.0412 45.5152Z" fill="#9E13E0"/>
<path d="M22.0174 45.5152C19.0562 44.1279 12.5734 40.4248 10.3325 36.7109C10.8127 39.1922 13.7899 44.7469 19.2963 51.2781L28.8203 62.4035C31.3563 65.7683 36.3075 72.683 36.9879 74.9261C37.0168 75.0559 37.042 75.1773 37.0637 75.2898C37.0562 75.1881 37.0304 75.0662 36.9879 74.9261C36.4473 72.5004 34.6276 67.1442 30.9812 62.4035L27.0595 56.0004L24.8986 51.9184L22.0174 45.5152Z" fill="#9E13E0"/>
<path d="M70.284 48.1548L63.8813 49.5955C64.1374 54.782 62.1739 60.4008 61.1602 62.5618C66.3463 58.784 69.4036 51.383 70.284 48.1548Z" fill="#9E13E0"/>
<path d="M29.8591 48.1548L36.2618 49.5955C36.0057 54.782 37.9692 60.4008 38.9829 62.5618C33.7967 58.784 30.7394 51.383 29.8591 48.1548Z" fill="#9E13E0"/>
<path d="M42.8987 75.774C42.2584 71.9321 39.4306 70.2246 38.0967 69.8511C39.3132 71.1957 40.3643 77.5615 40.7378 80.5763C41.6982 85.8269 47.2739 87.353 49.9417 87.4597C56.9206 86.8194 59.0388 82.604 59.2256 80.5763C59.4817 76.3503 61.093 71.7187 61.8667 69.9311C58.6013 70.9556 57.2514 74.2532 56.9846 75.774C57.1127 83.4577 52.3427 85.9656 49.9417 86.2591C43.619 84.1781 43.699 80.5763 42.8987 75.774Z" fill="#9E13E0"/>
<path d="M52.5028 51.27H47.4606L47.3806 68.4784C47.3806 71.5519 46.2068 76.9092 45.6199 79.2037C47.7968 77.731 49.4615 71.9201 50.0217 69.1988C50.9821 74.8976 53.3565 78.2432 54.4236 79.2037C53.4632 76.8345 52.7429 71.0664 52.5028 68.4784V51.27Z" fill="#9E13E0"/>
<path d="M17.2942 18.3911C19.4017 16.7637 24.6257 13.6848 28.6594 14.3892C32.6928 15.0935 35.782 16.3894 36.8225 16.9497C39.4102 18.5238 46.7945 21.2721 55.6301 19.6714C57.3375 19.2712 61.5368 18.0389 64.6741 16.3101C67.8114 14.5812 72.331 14.3091 74.1985 14.3892C75.1859 14.3893 78.2485 15.1739 82.6018 18.311L88.3645 23.7534C89.1381 24.7406 90.509 27.2109 89.8049 29.1958C88.9246 31.6769 88.0443 32.7178 83.6428 37.1196C82.3623 38.2135 78.8399 40.786 74.9983 42.3228L68.5959 45.2036C66.5418 46.004 61.7457 47.5406 58.9924 47.2847C58.1654 47.1513 56.0304 46.6125 54.1096 45.5239C52.1892 44.4357 50.5356 44.1637 49.9485 44.1636C49.0681 44.2703 46.5223 44.9162 43.385 46.645C40.2475 48.3733 33.2745 46.0313 30.1799 44.644L25.0579 42.3228C22.8436 41.469 17.6628 38.9127 14.6536 35.519C11.6463 32.1276 10.8395 30.8519 10.8118 30.6372C10.2782 29.8102 9.46712 27.6914 10.4915 25.8345L11.6917 23.7534L17.2942 18.3911ZM34.7307 26.6743C30.9532 22.0645 26.3273 22.032 24.4866 22.5923L20.5657 23.6333C22.6468 23.7934 27.1922 24.4338 28.7288 25.7144C26.0877 25.581 19.9893 25.7624 16.7239 27.5552C18.6181 28.8359 22.6945 31.6849 23.8469 32.8374C24.3805 33.5844 26.8401 35.0786 32.4104 35.0786C37.9806 35.0786 41.721 33.5844 42.8948 32.8374C41.7476 32.704 38.5083 31.2846 34.7307 26.6743ZM78.1292 22.5923C76.2884 22.032 71.6625 22.0644 67.885 26.6743C64.1074 31.2846 60.8681 32.704 59.7209 32.8374C60.8947 33.5844 64.6352 35.0786 70.2053 35.0786C75.7755 35.0786 78.2352 33.5845 78.7688 32.8374C79.9212 31.6849 83.9976 28.8359 85.8918 27.5552C82.6264 25.7624 76.528 25.581 73.887 25.7144C75.4236 24.4337 79.9702 23.7934 82.051 23.6333L78.1292 22.5923Z" fill="#9E13E0"/>
</svg>
